<?xml version="1.0" encoding="iso-8859-1"?>
<!-- Generator: Adobe Illustrator 19.0.0, SVG Export Plug-In . SVG Version: 6.00 Build 0)  -->
<!-- License: CC0. Made by SVG Repo: https://www.svgrepo.com/svg/52423/photo -->
<svg version="1.1" id="Layer_1" xmlns="http://www.w3.org/2000/svg" xmlns:xlink="http://www.w3.org/1999/xlink" x="0px" y="0px"
	 viewBox="0 0 473.931 473.931" style="enable-background:new 0 0 473.931 473.931;" xml:space="preserve">
<circle style="fill:#357180;" cx="236.966" cy="236.966" r="236.966"/>
<rect x="122.549" y="89.391" transform="matrix(-0.1577 -0.9875 0.9875 -0.1577 31.302 502.8438)" style="fill:#EBF6F9;" width="215.117" height="297.361"/>
<polygon style="fill:#DBF0F5;" points="385.731,310.686 107.467,356.489 75.928,163.193 354.191,117.39 "/>
<path style="fill:#6CC077;" d="M376.922,276.64l-43.853-31.446c0,0-13.074-12.123-23.001-9.912
	c-8.935,2.002-17.609,15.023-19.248,17.594l-14.698-10.544c0,0-15.33-14.226-26.963-11.618
	c-11.633,2.601-22.967,21.268-22.967,21.268l-3.222,4.479l-27.67-19.854c0,0-18.832-17.478-33.126-14.282
	c-14.297,3.195-28.232,26.147-28.232,26.147l-33.403,46.559l9.59,58.068l271.981-44.778L376.922,276.64z"/>
<g>
	<path style="fill:#67B8CB;" d="M239.937,186.302c-0.015-0.318,0.153-0.621,0.09-0.943c-0.819-4.954-6.832-8.082-13.429-7.001
		c-0.868,0.146-1.594,0.513-2.398,0.778c-2.406-2.305-6.32-3.558-10.642-2.847c-5.594,0.92-9.538,4.692-9.934,8.831
		c-5.253,1.968-8.756,6.181-8.03,10.593c0.685,4.172,4.894,7.012,10.099,7.461c2.324,3.532,7.416,5.557,13.055,4.632
		c5.111-0.842,9.066-3.843,10.57-7.431c1.392,0.225,2.862,0.247,4.393-0.007c5.86-0.958,10.02-5.306,9.306-9.71
		C242.721,188.854,241.504,187.417,239.937,186.302z"/>
	<path style="fill:#67B8CB;" d="M297.668,188.368c-0.079-0.221-0.258-0.389-0.292-0.61c-0.576-3.514,2.761-7.005,7.446-7.772
		c0.621-0.105,1.194-0.022,1.785-0.022c1.096-2.107,3.457-3.843,6.511-4.344c3.985-0.662,7.495,0.984,8.711,3.678
		c3.985,0.135,7.3,2.17,7.813,5.306c0.49,2.967-1.706,5.833-5.089,7.326c-0.756,2.896-3.734,5.426-7.734,6.084
		c-3.633,0.599-6.982-0.528-8.812-2.586c-0.887,0.46-1.875,0.812-2.956,0.992c-4.168,0.688-7.959-1.291-8.471-4.419
		C296.351,190.721,296.841,189.479,297.668,188.368z"/>
</g>
<path style="fill:#020202;" d="M266.241,227.798c0-3.491-1.553-6.312-3.465-6.312h-14.544c-1.912,0-3.465,2.821-3.465,6.312
	s1.553,6.316,3.465,6.316h14.544C264.688,234.111,266.241,231.286,266.241,227.798"/>
<g>
	<path style="fill:#231F20;" d="M413.704,249.108c0-6.114-4.954-11.064-11.057-11.064H245.299c-6.107,0-11.057,4.95-11.057,11.064
		v82.263c0,6.103,4.95,11.057,11.057,11.057h157.349c6.103,0,11.057-4.954,11.057-11.057V249.108L413.704,249.108z"/>
	<path style="fill:#231F20;" d="M311.498,241.265c0-7.416-5.014-13.444-11.192-13.444h-54.869c-6.185,0-11.195,6.024-11.195,13.444
		v31.94c0,7.424,5.006,13.44,11.195,13.44h54.869c6.178,0,11.192-6.013,11.192-13.44V241.265z"/>
</g>
<path style="fill:#020202;" d="M379.074,289.964c0-30.432-24.669-55.105-55.105-55.105c-30.428,0-55.105,24.673-55.105,55.105
	c0,30.435,24.677,55.109,55.105,55.109C354.405,345.073,379.074,320.399,379.074,289.964"/>
<path style="fill:#231F20;" d="M376.279,289.971c0-28.894-23.416-52.31-52.302-52.31c-28.886,0-52.306,23.42-52.306,52.31
	c0,28.883,23.42,52.306,52.306,52.306C352.863,342.278,376.279,318.854,376.279,289.971"/>
<path style="fill:#969595;" d="M373.476,289.964c0-27.337-22.162-49.503-49.5-49.503c-27.341,0-49.503,22.17-49.503,49.503
	c0,27.345,22.162,49.503,49.503,49.503C351.314,339.467,373.476,317.309,373.476,289.964"/>
<path style="fill:#231F20;" d="M371.25,289.971c0-26.114-21.171-47.273-47.277-47.273s-47.27,21.156-47.27,47.273
	c0,26.106,21.163,47.266,47.27,47.266C350.079,337.237,371.25,316.078,371.25,289.971"/>
<path style="fill:#020202;" d="M367.74,289.964c0-23.996-19.453-43.446-43.449-43.446c-23.992,0-43.446,19.45-43.446,43.446
	s19.453,43.449,43.446,43.449C348.283,333.413,367.74,313.96,367.74,289.964"/>
<path style="fill:#231F20;" d="M365.533,289.964c0-22.772-18.466-41.238-41.242-41.238c-22.772,0-41.238,18.466-41.238,41.238
	c0,22.78,18.466,41.238,41.238,41.238C347.071,331.202,365.533,312.744,365.533,289.964"/>
<path style="fill:#5A5B5D;" d="M363.321,289.964c0-21.556-17.474-39.03-39.034-39.03c-21.556,0-39.027,17.474-39.027,39.03
	c0,21.56,17.47,39.03,39.027,39.03C345.851,328.994,363.321,311.524,363.321,289.964"/>
<path style="fill:#231F20;" d="M361.563,289.964c0-20.583-16.685-37.272-37.272-37.272c-20.583,0-37.268,16.688-37.268,37.272
	c0,20.583,16.685,37.275,37.268,37.275C344.878,327.239,361.563,310.547,361.563,289.964"/>
<path style="fill:#A5B6B9;" d="M356.612,289.964c0-17.852-14.473-32.318-32.325-32.318c-17.848,0-32.318,14.466-32.318,32.318
	c0,17.848,14.469,32.325,32.318,32.325C342.139,322.289,356.612,307.812,356.612,289.964"/>
<path style="fill:#FFFFFF;" d="M328.86,279.109c0,8.569-6.948,15.513-15.513,15.513c-8.572,0-15.513-6.945-15.513-15.513
	c0-8.565,6.941-15.513,15.513-15.513C321.915,263.596,328.86,270.544,328.86,279.109"/>
<g>
	<path style="fill:#67B8CB;" d="M244.18,234.111c-2.238,0-4.045,1.811-4.045,4.041v3.042v0.228l7.311-7.308h-3.267V234.111z"/>
	<path style="fill:#67B8CB;" d="M275.427,238.152c0-2.23-1.807-4.041-4.045-4.041h-5.31L242.96,257.22
		c0.389,0.123,0.79,0.21,1.22,0.21h19.173l12.075-12.071L275.427,238.152L275.427,238.152z"/>
</g>
<g>
	<path style="fill:#D6E4F4;" d="M247.446,234.111l-7.311,7.308v2.997v8.965c0,1.807,1.19,3.319,2.825,3.835l23.113-23.109h-18.626
		V234.111z"/>
	<path style="fill:#D6E4F4;" d="M275.427,253.385v-8.026l-12.075,12.071h8.03C273.616,257.429,275.427,255.618,275.427,253.385"/>
</g>
</svg>
