<svg version="1.2" xmlns="http://www.w3.org/2000/svg" viewBox="0 0 1024 1024" width="456" height="456">
    <style>
        .s0 { fill: #f4f3f1 }
        .s1 { fill: #0d95e0 }
        .s2 { fill: #fdda59 }
        .s3 { fill: #e2a522 }
    </style>
    <g id="Layer 1">
        <g id="Background">
            <path id="Path 0" fill-rule="evenodd" class="s0" d="m0 512v512h1024v-1024h-1024z"/>
            <path id="Path 1" fill-rule="evenodd" class="s1" d="m506.5 351.07c-3.3 0.45-8.48 1.33-11.5 1.96-3.02 0.62-9.55 2.48-14.5 4.14-4.95 1.65-12.15 4.45-16 6.22-3.85 1.76-11.05 5.84-16 9.06-4.95 3.21-11.93 8.21-15.5 11.1-3.57 2.88-8.78 7.65-11.57 10.6-2.79 2.94-6.88 7.6-9.09 10.35-2.2 2.75-5.83 7.7-8.05 11-2.23 3.3-6.31 10.5-9.08 16-2.77 5.5-5.3 11.13-5.61 12.5-0.31 1.38-1.14 3.09-1.84 3.81-0.86 0.9-2.68 1.13-5.76 0.72-2.48-0.33-7.87-0.09-12 0.53-4.12 0.62-9.98 1.77-13 2.55-3.02 0.77-8.65 2.9-12.5 4.71-3.85 1.82-9.7 5.14-13 7.38-3.3 2.24-9.18 7.39-13.06 11.44-3.89 4.05-8.59 9.61-10.45 12.36-1.85 2.75-4.85 8.15-6.65 12-1.8 3.85-3.99 9.7-4.87 13-0.88 3.3-1.9 9.44-2.28 13.63l-0.69 7.64c-13.95 0.82-21.15 1.93-25 3-3.85 1.06-9.93 3.14-13.5 4.62-3.57 1.47-9.65 4.54-13.5 6.82-3.85 2.28-9.93 6.49-13.5 9.37-3.57 2.87-9.46 8.3-13.09 12.07-3.62 3.77-8.73 9.77-11.34 13.35-2.62 3.58-6.7 10.1-9.07 14.5-2.37 4.4-5.89 12.27-7.83 17.5-1.94 5.23-4.53 14.23-5.75 20-1.75 8.24-2.23 13.74-2.21 25.5 0.01 11.56 0.52 17.41 2.22 25.5 1.21 5.77 3.32 13.88 4.69 18 1.36 4.13 4.44 11.55 6.84 16.5 2.39 4.95 7.21 12.99 10.7 17.87 3.49 4.88 10.39 12.77 15.34 17.53 4.95 4.77 12.82 11.22 17.5 14.33 4.68 3.12 12.78 7.54 18 9.82 5.23 2.29 13.77 5.24 19 6.57 5.23 1.32 12.2 2.68 15.5 3.01l6 0.61c-0.62 18.84-0.21 25.02 0.97 31.26 0.95 4.95 2.65 11.48 3.78 14.5 1.14 3.02 3.46 6.9 5.16 8.61 2.09 2.1 4.78 3.48 8.34 4.25 2.89 0.63 13.01 1.14 22.5 1.14 10.62 0.01 19.17-0.48 22.25-1.26 2.75-0.69 7.61-2.83 10.8-4.75 3.19-1.92 21.08-14.85 39.75-28.74l33.95-25.25 295.5-0.5c15.5-4.31 24.05-7.5 29-9.86 4.95-2.37 12.6-7.02 17-10.34 4.4-3.31 10.2-8.45 12.88-11.41 2.68-2.96 6.56-7.87 8.61-10.89 2.06-3.02 5.15-8.31 6.87-11.75 1.73-3.44 4.31-10.19 5.74-15 1.91-6.4 2.76-11.98 3.16-20.75 0.34-7.49 0.09-14.44-0.66-18.5-0.66-3.58-2.14-9.42-3.29-13-1.15-3.58-3.44-9.2-5.09-12.5-1.65-3.3-4.67-8.48-6.72-11.5-2.05-3.02-6.87-8.87-10.71-13l-6.98-7.5c-1.02-17.44-2.33-26.04-3.8-31.75-1.38-5.36-4.1-13.69-6.04-18.5-1.94-4.81-5.77-12.8-8.52-17.75-2.75-4.95-7.19-11.92-9.87-15.5-2.69-3.58-7.51-9.49-10.73-13.14-3.22-3.65-9-9.45-12.85-12.89-3.85-3.44-10.6-8.61-15-11.49-4.4-2.88-10.25-6.37-13-7.75-2.75-1.38-8.49-3.69-12.75-5.12-4.26-1.44-12.21-3.17-17.65-3.86l-9.91-1.25c-1.01-10.85-1.74-15.8-2.26-18-0.53-2.2-1.46-5.8-2.08-8-0.61-2.2-2-6.7-3.08-10-1.08-3.3-4.2-10.5-6.94-16-2.74-5.5-7.51-13.82-10.6-18.5-3.36-5.09-10.65-13.57-18.17-21.14-8.67-8.72-15.51-14.56-22.06-18.83-5.23-3.41-13.1-7.92-17.5-10.03-4.4-2.11-12.05-5.18-17-6.82-4.95-1.65-11.25-3.47-14-4.05-2.75-0.58-8.26-1.52-12.25-2.09-3.99-0.57-12.09-0.99-18-0.92-5.91 0.07-13.45 0.5-16.75 0.95z"/>
            <path id="Path 2" fill-rule="evenodd" class="s0" d="m388.96 679.15c-2.26 2.31-2.29 2.61-1.57 16.35l0.74 14c-9.01 2.09-14.78 4.02-18.63 5.63-3.85 1.61-10.15 4.91-14 7.33-3.85 2.43-9.77 6.8-13.17 9.73-3.39 2.92-8.61 8.23-11.6 11.81-2.99 3.58-7.32 9.65-9.62 13.5-2.29 3.85-5.51 10.49-7.14 14.75-1.63 4.26-3.73 10.79-4.67 14.5-1.19 4.74-1.7 10.92-1.71 20.75-0.01 10.92 0.4 15.32 1.86 20 1.04 3.3 2.93 7.01 4.22 8.25 1.28 1.24 2.89 2.25 3.58 2.26 0.69 0 2.26-0.67 3.5-1.5 1.43-0.96 2.24-2.51 2.23-4.26-0.01-1.51 1.38-7.48 3.08-13.25 1.71-5.77 4.5-13.2 6.22-16.5 2.03-3.92 6.43-9.31 12.67-15.53 7.61-7.59 11.27-10.4 18.05-13.85 7.04-3.58 9.83-4.43 16.26-4.97l7.76-0.65c-0.02 23.48-0.01 23.51 2.98 26.5 1.65 1.65 3.56 3.02 4.25 3.04 0.69 0.02 9.8-6.42 20.25-14.31 10.45-7.88 27.44-20.72 37.75-28.53 18.41-13.94 18.75-14.27 18.79-17.95 0.03-2.2-0.7-4.63-1.75-5.88-0.98-1.17-5.39-4.75-9.79-7.96-4.4-3.2-20.37-14.58-35.5-25.29-15.12-10.71-28.68-19.66-30.12-19.89-1.82-0.3-3.33 0.29-4.92 1.92zm100.04-131.57c-2.48 0.79-6.05 2.67-7.95 4.18-2.35 1.86-4.83 5.7-7.75 11.99-2.37 5.09-4.86 9.59-5.55 10-0.69 0.41-9.8 0.99-20.25 1.28-16.69 0.46-19.49 0.78-23 2.61-2.2 1.15-5.24 3.5-6.75 5.22-1.51 1.73-3.2 4.83-3.74 6.89-0.55 2.06-1.02 16.8-1.05 32.75-0.04 26.47 0.11 29.18 1.75 31.1 0.98 1.16 5.39 4.96 9.79 8.44 4.4 3.48 13.85 11.06 21 16.84 7.15 5.78 18.85 15.3 26 21.16 7.15 5.86 14.46 12.3 16.25 14.31 1.79 2.01 4.26 5.69 5.5 8.19l2.25 4.54c101.72-0.57 104.17-0.67 107.92-2.58 2.16-1.1 5.67-3.8 7.8-6 2.12-2.2 4.52-6.02 5.33-8.5 1.23-3.74 1.47-13.91 1.46-60.5-0.01-32.3-0.42-57.48-0.97-59.5-0.53-1.92-1.99-5.04-3.25-6.91-1.26-1.88-4.09-4.36-6.29-5.5-3.54-1.85-6.26-2.15-23.72-2.59-18.07-0.46-19.89-0.67-21.63-2.5-1.04-1.1-3.19-5.36-4.77-9.47-1.66-4.3-4.26-8.86-6.13-10.75-1.99-2.01-5.28-3.86-8.5-4.79-4.01-1.15-10.43-1.49-27.25-1.43-16.25 0.05-23.18 0.45-26.5 1.52z"/>
            <path id="Path 3" fill-rule="evenodd" class="s1" d="m502.5 595.87c-3.3 0.95-8.89 3.28-12.43 5.18-3.54 1.9-8.66 5.47-11.37 7.95-2.72 2.48-6.7 7.2-8.84 10.5-2.15 3.3-5.02 9.49-6.38 13.75-1.62 5.07-2.48 10.08-2.49 14.5 0 3.71 0.69 9.45 1.54 12.75 0.84 3.3 3.14 9.37 5.11 13.5 2.27 4.78 5.66 9.67 9.34 13.5 3.2 3.32 8.62 7.53 12.15 9.42 3.5 1.88 8.62 4.02 11.37 4.74 2.75 0.72 8.82 1.32 13.5 1.32 4.67 0 11.42-0.72 15-1.6 3.58-0.88 9.2-3 12.5-4.71 3.53-1.83 9.12-6.2 13.58-10.64 4.63-4.6 8.62-9.67 10.26-13.03 1.48-3.02 3.35-7.98 4.16-11 0.81-3.02 1.48-9.21 1.49-13.75 0.01-6.16-0.62-10.15-2.49-15.75-1.38-4.13-4.15-10.09-6.17-13.25-2.02-3.16-5.96-7.91-8.75-10.54-2.79-2.64-8-6.31-11.58-8.17-3.58-1.85-9.2-4.07-12.5-4.94-3.3-0.86-9.38-1.54-13.5-1.51-4.13 0.03-10.2 0.83-13.5 1.78z"/>
            <path id="Path 4" fill-rule="evenodd" class="s0" d="m504.5 619.95c-2.75 1.09-6.96 3.68-9.35 5.76-2.39 2.09-5.44 6.04-6.77 8.79-1.34 2.75-2.71 7.47-3.05 10.5-0.45 4.07-0.08 7.31 1.45 12.5 1.52 5.14 3.24 8.33 6.47 12 2.78 3.14 6.43 5.91 9.83 7.44 4.2 1.89 7.12 2.44 12.92 2.44 5.81 0 8.72-0.55 12.92-2.44 3.32-1.5 7.28-4.47 10.25-7.69 3.33-3.62 5.3-6.88 6.34-10.5 0.83-2.89 1.51-7.28 1.52-9.75 0.01-2.48-0.69-6.75-1.56-9.5-0.86-2.75-3.23-7.21-5.27-9.9-2.22-2.95-5.9-6.12-9.2-7.96-4.63-2.58-6.77-3.11-13.5-3.36-6.13-0.23-9.17 0.17-13 1.67z"/>
            <path id="Path 5" fill-rule="evenodd" class="s0" d="m505.5 422.97c-3.3 0.46-8.02 1.36-10.5 1.99-2.48 0.64-7.43 2.25-11 3.58-3.57 1.33-9.2 4.04-12.5 6.03-3.3 1.98-8.86 5.93-12.37 8.77-3.5 2.84-9.12 8.61-12.5 12.82-3.37 4.21-7.9 10.96-10.07 15-2.17 4.04-5.4 11.39-7.17 16.34-2.01 5.61-3.73 8.93-4.56 8.83-0.73-0.1-4.71-0.93-8.83-1.85-5.54-1.24-10.11-1.53-17.5-1.13-5.5 0.31-12.7 1.28-16 2.18-3.3 0.89-9.15 3.11-13 4.93-3.85 1.83-9.93 5.63-13.5 8.46-3.57 2.83-8.65 7.71-11.27 10.86-2.62 3.15-6.53 9.32-8.69 13.72-2.15 4.4-4.64 10.7-5.51 14-0.88 3.3-1.92 10.11-2.31 15.14l-0.72 9.14c-8.52 0.9-13.7 1.85-17 2.69-3.3 0.84-10.27 3.65-15.5 6.25-7.87 3.91-11.06 6.27-18.61 13.75-6.3 6.24-10.4 11.35-13.26 16.53-2.28 4.12-5.3 11.1-6.71 15.5-2.03 6.34-2.68 10.8-3.11 21.5-0.45 11.39-0.22 14.83 1.49 22 1.11 4.67 3.11 10.97 4.44 14 1.32 3.02 4.06 8.09 6.08 11.25 2.03 3.16 5.59 7.84 7.93 10.38 2.34 2.55 6.73 6.55 9.75 8.88 3.02 2.34 8.2 5.6 11.5 7.25 3.3 1.66 8.25 3.72 11 4.59 2.75 0.87 8.15 2.06 12 2.64 6.96 1.05 7.02 1.04 10-1.81 1.65-1.58 11.89-9.69 22.75-18.02l19.75-15.16c0-14.07-0.34-15.46-2.72-18.75-1.49-2.06-3.97-5.21-5.5-7-1.53-1.79-2.78-4.15-2.78-5.25 0-1.1 1.12-3.35 2.5-5 1.37-1.65 2.53-3.79 2.57-4.75 0.04-0.96 0.15-17.52 0.25-36.8l0.18-35.05c6.8-13.73 9.81-17.82 14.94-22.92 4.34-4.31 9.76-8.44 14.06-10.71 3.85-2.04 10.15-4.38 14-5.22 3.85-0.83 11.27-1.53 16.5-1.55 7.8-0.02 10.29-0.43 13.93-2.26 2.44-1.23 5.7-3.82 7.26-5.74 1.55-1.92 3.94-6.88 5.3-11 1.36-4.13 4.09-10.2 6.05-13.5 1.97-3.3 5.91-8.39 8.77-11.3 2.85-2.92 8.56-7.46 12.69-10.1 4.12-2.64 10.43-5.96 14-7.37 3.57-1.41 9.43-3.12 13-3.8 3.99-0.76 9.98-1.01 15.5-0.66 4.95 0.33 12.15 1.56 16 2.76 3.85 1.19 9.7 3.58 12.99 5.32 3.64 1.91 9.36 6.49 14.54 11.65 6.02 5.99 9.6 10.57 12.13 15.5 1.97 3.85 3.87 8.24 4.21 9.75 0.35 1.51 1.87 4.16 3.38 5.88 1.51 1.73 4.1 3.85 5.75 4.73 2.2 1.16 7.16 1.74 18.5 2.16 14.46 0.54 15.87 0.77 21 3.4 3.23 1.66 8.82 6.18 13.56 10.95 6.26 6.32 9.07 10.14 12.6 17.13 2.5 4.95 5.3 12.37 6.23 16.5 1.51 6.68 1.66 14.23 1.4 69l-0.29 61.5c-4.34 9.3-7.27 13.69-9.3 15.77l-3.7 3.76c58.02-0.01 61.78-0.21 69-2.07 4.4-1.13 11.15-3.7 15-5.71 4.65-2.43 9.71-6.35 15.1-11.7 6.38-6.35 8.98-9.85 12.27-16.55 2.29-4.67 4.88-11.88 5.75-16 1.13-5.37 1.43-10.34 1.03-17.5-0.31-5.5-1.3-12.48-2.2-15.5-0.91-3.03-3.51-9.07-5.8-13.44-2.44-4.65-6.83-10.79-10.65-14.86-3.58-3.82-9.65-8.88-13.5-11.25-3.85-2.38-10.38-5.44-14.5-6.82-4.13-1.37-10.2-2.79-13.5-3.16l-6-0.66c-1.16-16.52-2.19-24.23-3.05-27.81-0.86-3.58-2.74-9.42-4.17-13-1.43-3.58-4.45-9.59-6.69-13.37-2.25-3.79-7.01-10.03-10.59-13.88-3.58-3.85-9.65-9.1-13.5-11.67-3.85-2.56-10.38-6.08-14.5-7.82-4.13-1.73-10.65-3.8-14.5-4.6-3.85-0.8-11.84-1.73-17.75-2.06l-10.75-0.6c-3.26-11.24-5.65-17.65-7.41-21.5-1.76-3.85-5.23-10.15-7.71-14-2.47-3.85-7.4-10.09-10.94-13.86-3.54-3.78-9.36-9.03-12.94-11.67-3.58-2.64-10.33-6.64-15-8.88-4.67-2.24-11.88-4.93-16-5.99-4.13-1.06-11.33-2.16-16-2.44-4.67-0.29-11.2-0.15-14.5 0.31z"/>
            <path id="Path 6" fill-rule="evenodd" class="s2" d="m227 302.06c-3.03 1.1-7.53 3.21-10 4.69-2.47 1.47-7.25 5.4-10.6 8.72-4.46 4.41-7.1 8.18-9.81 14.03-2.04 4.4-4.13 8.79-4.65 9.75-0.57 1.06-0.94 52.44-0.94 131.25 0 85.67 0.34 129.5 1 129.5 0.55 0 2.62-2.81 4.61-6.25 1.98-3.44 5.99-9.4 8.91-13.25 2.92-3.85 8.61-10.18 12.64-14.06 4.04-3.89 9.37-8.65 11.84-10.58 2.47-1.94 7.65-5.38 11.5-7.66 3.85-2.27 9.93-5.34 13.5-6.81 3.57-1.48 9.65-3.56 13.5-4.62 3.85-1.07 11.05-2.18 16-2.47l9-0.53c1.07-11.83 2.09-17.97 2.97-21.27 0.88-3.3 3.07-9.15 4.87-13 1.8-3.85 4.8-9.25 6.65-12 1.86-2.75 6.56-8.31 10.45-12.36 3.88-4.05 9.76-9.2 13.06-11.44 3.3-2.24 9.15-5.56 13-7.38 3.85-1.81 9.48-3.94 12.5-4.71 3.02-0.78 8.88-1.93 13-2.55 4.12-0.62 9.52-0.86 12-0.53 3.08 0.41 4.9 0.18 5.76-0.72 0.7-0.72 1.53-2.44 1.84-3.81 0.31-1.38 2.84-7 5.61-12.5 2.77-5.5 6.85-12.7 9.08-16 2.22-3.3 5.85-8.25 8.05-11 2.21-2.75 6.3-7.41 9.09-10.35 2.79-2.95 8-7.72 11.57-10.6 3.57-2.89 10.55-7.89 15.5-11.1 4.95-3.22 12.15-7.3 16-9.06 3.85-1.77 11.05-4.56 16-6.21 4.95-1.64 11.25-3.47 14-4.06 2.75-0.59 8.49-1.53 12.75-2.09 4.26-0.57 12.02-1.03 17.25-1.03 5.23 0 12.76 0.47 16.75 1.04 3.99 0.57 9.5 1.51 12.25 2.09 2.75 0.58 9.05 2.4 14 4.05 4.95 1.64 12.6 4.71 17 6.82 4.4 2.11 12.27 6.62 17.5 10.03 6.55 4.27 13.39 10.11 22.06 18.83 7.52 7.57 14.81 16.05 18.17 21.14 3.09 4.68 7.86 13 10.6 18.5 2.74 5.5 5.86 12.7 6.94 16 1.08 3.3 2.47 7.8 3.08 10 0.62 2.2 1.55 5.8 2.08 8 0.52 2.2 1.25 7.15 1.61 11l0.65 7c15.35 1.94 23.3 3.67 27.56 5.11 4.26 1.43 10 3.74 12.75 5.12 2.75 1.38 8.6 4.87 13 7.75 4.4 2.88 10.99 7.89 14.64 11.13 3.65 3.24 9.43 9.04 12.85 12.89 3.41 3.85 8.4 9.92 11.09 13.5 2.68 3.58 7.12 10.55 9.87 15.5 2.75 4.95 6.58 12.94 8.52 17.75 1.94 4.81 4.65 13.14 6.02 18.5 1.37 5.36 2.5 11.21 2.5 13 0.01 1.79 0.46 3.25 1.01 3.25 0.66 0 1-48.33 1-143v-143c-3.35-5.81-6.16-9.45-8.41-11.83-2.25-2.39-6.34-5.54-9.09-7l-5-2.67c-530.71-0.43-533.05-0.42-538.5 1.56z"/>
            <path id="Path 7" fill-rule="evenodd" class="s3" d="m226.25 175.55c-2.89 0.8-7.16 2.42-9.5 3.6-2.34 1.18-7.18 4.96-10.75 8.39-4.96 4.76-7.45 8.22-10.5 14.6l-4 8.36c-0.47 100.75-0.24 129.61 0.2 129.14 0.44-0.47 1.94-3.62 3.34-7 1.4-3.38 3.99-8.28 5.75-10.89 1.77-2.61 6.02-7.08 9.46-9.92 3.44-2.85 9.18-6.56 12.75-8.25l6.5-3.08h536c6.98 3.65 10.95 6.57 13.33 8.85 2.39 2.28 5.31 5.95 6.5 8.15l2.17 4c0.44-34.72 0.14-40.89-1-45.25-0.82-3.16-2.96-8.16-4.75-11.11-1.79-2.95-5.27-7.18-7.75-9.39-2.48-2.22-7.2-5.32-10.5-6.9-3.3-1.58-8.92-3.32-12.5-3.86-4.06-0.62-54.46-0.95-134.5-0.87-113.54 0.11-128.34-0.06-131-1.42-1.65-0.85-5.29-3.94-8.09-6.87-2.8-2.93-10.9-12.3-17.99-20.83-7.09-8.53-17.62-20.27-23.41-26.11-8.1-8.18-11.66-11.04-15.51-12.5-4.75-1.79-9.52-1.9-97-2.09-77.64-0.16-92.82 0.03-97.25 1.25z"/>
        </g>
    </g>
</svg>
